
<svg width="60" height="35" viewBox="0 0 60 35" xmlns="http://www.w3.org/2000/svg">
    <path fill-rule="evenodd" clip-rule="evenodd" d="M10.5 2.625C10.5 1.17525 11.6753 0 13.125 0C14.5747 0 15.75 1.17525 15.75 2.625V14.7L43.75 14.7V2.625C43.75 1.17525 44.9253 0 46.375 0C47.8247 0 49 1.17525 49 2.625V32.375C49 33.8247 47.8247 35 46.375 35C44.9253 35 43.75 33.8247 43.75 32.375V20.3H15.75V32.375C15.75 33.8247 14.5747 35 13.125 35C11.6753 35 10.5 33.8247 10.5 32.375V2.625ZM0 8.75C0 7.30025 1.17525 6.125 2.625 6.125C4.07475 6.125 5.25 7.30025 5.25 8.75V25.375C5.25 26.8247 4.07475 28 2.625 28C1.17525 28 0 26.8247 0 25.375V8.75ZM56.875 6.125C58.3247 6.125 59.5 7.30025 59.5 8.75V25.375C59.5 26.8247 58.3247 28 56.875 28C55.4253 28 54.25 26.8247 54.25 25.375V8.75C54.25 7.30025 55.4253 6.125 56.875 6.125Z" fill="#ffffff"/>
</svg>
